<?xml version="1.0" standalone="no"?>
<svg xmlns:xlink="http://www.w3.org/1999/xlink" id="wave" style="transform:rotate(0deg); transition: 0.3s" viewBox="0 0 1440 290" version="1.1" xmlns="http://www.w3.org/2000/svg"><defs><linearGradient id="sw-gradient-0" x1="0" x2="0" y1="1" y2="0"><stop stop-color="rgba(62, 208, 197, 1)" offset="0%"/><stop stop-color="rgba(127.5, 255, 220.448, 1)" offset="100%"/></linearGradient></defs><path style="transform:translate(0, 0px); opacity:1" fill="url(#sw-gradient-0)" d="M0,261L120,232C240,203,480,145,720,145C960,145,1200,203,1440,188.5C1680,174,1920,87,2160,48.3C2400,10,2640,19,2880,29C3120,39,3360,48,3600,87C3840,126,4080,193,4320,207.8C4560,222,4800,184,5040,183.7C5280,184,5520,222,5760,207.8C6000,193,6240,126,6480,96.7C6720,68,6960,77,7200,77.3C7440,77,7680,68,7920,72.5C8160,77,8400,97,8640,106.3C8880,116,9120,116,9360,111.2C9600,106,9840,97,10080,82.2C10320,68,10560,48,10800,58C11040,68,11280,106,11520,145C11760,184,12000,222,12240,217.5C12480,213,12720,164,12960,149.8C13200,135,13440,155,13680,178.8C13920,203,14160,232,14400,207.8C14640,184,14880,106,15120,96.7C15360,87,15600,145,15840,169.2C16080,193,16320,184,16560,149.8C16800,116,17040,58,17160,29L17280,0L17280,290L17160,290C17040,290,16800,290,16560,290C16320,290,16080,290,15840,290C15600,290,15360,290,15120,290C14880,290,14640,290,14400,290C14160,290,13920,290,13680,290C13440,290,13200,290,12960,290C12720,290,12480,290,12240,290C12000,290,11760,290,11520,290C11280,290,11040,290,10800,290C10560,290,10320,290,10080,290C9840,290,9600,290,9360,290C9120,290,8880,290,8640,290C8400,290,8160,290,7920,290C7680,290,7440,290,7200,290C6960,290,6720,290,6480,290C6240,290,6000,290,5760,290C5520,290,5280,290,5040,290C4800,290,4560,290,4320,290C4080,290,3840,290,3600,290C3360,290,3120,290,2880,290C2640,290,2400,290,2160,290C1920,290,1680,290,1440,290C1200,290,960,290,720,290C480,290,240,290,120,290L0,290Z"/></svg>